<?xml version="1.0" encoding="UTF-8" standalone="no"?>
<!-- Created with Inkscape (http://www.inkscape.org/) -->

<svg
   xmlns:dc="http://purl.org/dc/elements/1.1/"
   xmlns:cc="http://creativecommons.org/ns#"
   xmlns:rdf="http://www.w3.org/1999/02/22-rdf-syntax-ns#"
   xmlns:svg="http://www.w3.org/2000/svg"
   xmlns="http://www.w3.org/2000/svg"
   xmlns:sodipodi="http://sodipodi.sourceforge.net/DTD/sodipodi-0.dtd"
   xmlns:inkscape="http://www.inkscape.org/namespaces/inkscape"
   width="304"
   height="60"
   id="svg2"
   version="1.1"
   inkscape:version="0.48.4 r9939"
   sodipodi:docname="cro-website-header.svg">
  <defs
     id="defs4" />
  <sodipodi:namedview
     id="base"
     pagecolor="#ffffff"
     bordercolor="#666666"
     borderopacity="1.0"
     inkscape:pageopacity="0.0"
     inkscape:pageshadow="2"
     inkscape:zoom="2.8284271"
     inkscape:cx="91.772502"
     inkscape:cy="17.46524"
     inkscape:document-units="px"
     inkscape:current-layer="layer1"
     showgrid="false"
     inkscape:window-width="1280"
     inkscape:window-height="738"
     inkscape:window-x="-8"
     inkscape:window-y="-8"
     inkscape:window-maximized="1" />
  <metadata
     id="metadata7">
    <rdf:RDF>
      <cc:Work
         rdf:about="">
        <dc:format>image/svg+xml</dc:format>
        <dc:type
           rdf:resource="http://purl.org/dc/dcmitype/StillImage" />
        <dc:title></dc:title>
      </cc:Work>
    </rdf:RDF>
  </metadata>
  <g
     inkscape:label="Layer 1"
     inkscape:groupmode="layer"
     id="layer1"
     transform="translate(0,-992.36218)">
    <rect
       style="fill:#77d8ab;fill-opacity:1;stroke:none"
       id="rect7112"
       width="184.89381"
       height="59.934895"
       x="59.376923"
       y="992.37512" />
    <path
       style="fill:#77d8ab;fill-opacity:1;stroke:none"
       d="m 245.87692,992.37517 c -32.54369,0 -58.9375,26.41673 -58.9375,58.98873 0,0.3254 0.026,0.6455 0.0312,0.9696 l 117.78125,0 c 0.005,-0.3241 0.0312,-0.6442 0.0312,-0.9696 10e-5,-32.572 -26.36246,-58.98873 -58.90615,-58.98873 z"
       id="path7114"
       inkscape:connector-curvature="0" />
    <g
       style="fill:none;stroke:none"
       id="Page-1"
       transform="matrix(0.42857143,0,0,0.42857143,0.06249991,992.3675)">
      <g
         id="Cro">
        <g
           id="g3247">
          <rect
             style="fill:#77d8ab"
             id="bg-4"
             x="0"
             y="0"
             width="140"
             height="140" />
          <g
             style="fill:#030405"
             id="icon-0"
             transform="translate(10.266205,13.5)">
            <path
               inkscape:connector-curvature="0"
               d="m 36.2323,86.7614 c -1.854,-2.072 -3.462,-4.329 -4.84,-6.759 l 4.9,0.445 c 3.054,1.21 6.161,2.362 9.322,3.457 3.161,1.094 5.094,1.688 5.797,1.78 l 0.273,5.815 1.709,2.411 1.712,3.374 0.128,0.658 c -2.299,-0.536 -4.489,-1.256 -6.557,-2.185 -4.898,-2.199 -9.046,-5.197 -12.444,-8.996 z m 20.537,1.25 c 0.742,-0.07 1.225,-0.07 1.448,0 0.223,0.069 0.517,0.312 0.883,0.729 l -1.345,3.24 0,2.155 1.345,2.017 0,1.604 0.052,0.899 c -0.358,-0.047 -0.713,-0.099 -1.067,-0.155 l -1.316,-3.527 -1.21,-2.993 1.21,-3.969 z m 36.287,-3.199 c -3.198,4.498 -7.096,7.997 -11.695,10.495 -4.597,2.499 -9.945,3.749 -16.042,3.749 -1.01,0 -1.996,-0.04 -2.972,-0.099 l -0.536,-3.469 -0.788,-3.206 c 1.712,-3.192 2.988,-5.391 3.827,-6.598 0.84,-1.208 2.305,-2.953 4.399,-5.237 5.18,-3.192 8.665,-5.534 10.455,-7.027 1.79,-1.493 4.238,-4.099 7.343,-7.821 1.726,-2.443 2.923,-4.435 3.594,-5.974 0.67,-1.539 1.422,-4.024 2.256,-7.455 0.146,-1.848 0.146,-3.231 0,-4.149 -0.147,-0.918 -0.576,-2.228 -1.288,-3.929 -0.904,-2.265 -2.344,-4.314 -4.318,-6.149 -2.961,-2.752 -4.992,-3.315 -6.346,-3.763 -0.903,-0.298 -2.279,-0.298 -4.13,0 -4.013,-1.918 -6.638,-3.039 -7.875,-3.362 -1.237,-0.324 -3.104,-0.324 -5.599,0 4.442,2.122 7.29,3.61 8.545,4.461 0.916,0.622 3.834,2.799 2.348,2.161 -1.094,-0.471 -7.044,-2.747 -5.917,-1.663 1.127,1.084 1.956,0.688 3.1,1.663 0.234,0.199 0.58,0.559 1.039,1.079 l -9.37,-3.826 c -0.802,-0.276 -0.296,0.265 1.52,1.624 1.816,1.358 4.581,2.927 8.294,4.707 l 0.83,0.879 0.916,0.877 c 0.01,1.044 -0.229,1.945 -0.719,2.702 -0.734,1.135 -2.505,1.237 -3.595,1.307 -1.09,0.07 -4.706,0.039 -7.246,0.705 -2.54,0.666 -6.447,1.584 -11.865,4.304 -5.417,2.72 -3.581,2.841 -7.479,5.408 -3.898,2.569 -11.452,6.782 -11.818,7.527 -0.244,0.496 -0.419,1.003 -0.525,1.518 l -0.511,1.546 -3.656,1.868 c -0.996,-3.832 -1.496,-7.828 -1.496,-11.991 0,-5.997 0.95,-11.62 2.849,-16.867 1.899,-5.248 4.573,-9.821 8.022,-13.719 3.448,-3.898 7.596,-6.972 12.444,-9.221 4.848,-2.249 10.27,-3.374 16.268,-3.374 4.898,0 9.645,1.05 14.244,3.149 4.597,2.099 8.396,5.098 11.394,8.996 l 11.995,-9.146 c -4.298,-5.597 -9.821,-9.746 -16.568,-12.444 -6.747,-2.699 -13.618,-4.049 -20.615,-4.049 -8.197,0 -15.693,1.4 -22.49,4.199 -6.797,2.798 -12.62,6.722 -17.467,11.769 -4.849,5.048 -8.622,11.045 -11.321,17.992 -2.698,6.947 -4.048,14.519 -4.048,22.715 0,6.277 1.113,12.487 3.308,18.633 l -0.009,0.008 -7.121,2.901 -6.306,2.341 c -0.655,0.292 -0.29,0.797 1.098,1.516 0.884,0.459 -0.765,1.034 0.943,1.663 0.402,0.148 1.765,0.407 2.648,1.129 0.588,0.48 1.794,0.48 3.618,0 3.963,-1.147 6.683,-1.973 8.203,-2.491 2.21,4.249 4.947,8.182 8.237,11.783 4.748,5.198 10.495,9.396 17.242,12.595 6.747,3.198 14.319,4.797 22.715,4.797 6.097,0 11.47,-0.774 16.118,-2.323 4.648,-1.55 8.621,-3.349 11.919,-5.398 3.299,-2.049 5.948,-4.098 7.947,-6.147 1.999,-2.049 3.398,-3.624 4.198,-4.723 l -12.145,-9.146 z"
               id="Fill-1" />
          </g>
        </g>
      </g>
    </g>
    <path
       style="fill:#000000;stroke:none"
       inkscape:connector-curvature="0"
       d="m 82.576314,1026.2298 c -0.316268,2.7057 -1.314802,4.7935 -2.99566,6.2634 -1.680844,1.4701 -3.915119,2.2051 -6.702871,2.2051 -3.022022,0 -5.443688,-1.0834 -7.2651,-3.2505 -1.821411,-2.1669 -2.732103,-5.0659 -2.732103,-8.697 l 0,-2.4597 c 0,-2.3779 0.424598,-4.4686 1.27381,-6.2724 0.849212,-1.8039 2.052731,-3.189 3.610586,-4.1552 1.557856,-0.9664 3.361673,-1.4496 5.411495,-1.4496 2.717475,0 4.896102,0.7584 6.535969,2.2753 1.639852,1.5169 2.594457,3.6165 2.863874,6.2988 l -3.390973,0 c -0.292828,-2.0381 -0.928271,-3.5141 -1.906317,-4.4276 -0.97806,-0.9136 -2.345558,-1.3704 -4.102553,-1.3704 -2.155231,0 -3.844842,0.7965 -5.068879,2.3895 -1.224036,1.5928 -1.836054,3.8594 -1.836054,6.7994 l 0,2.4773 c 0,2.776 0.57981,4.984 1.739414,6.6238 1.15962,1.6398 2.781878,2.4598 4.866831,2.4598 1.874123,0 3.311898,-0.4246 4.313385,-1.2737 1.001485,-0.8492 1.666199,-2.328 1.994173,-4.4363 l 3.390973,0 z m 13.038627,-2.2315 -6.00887,0 0,10.3485 -3.390973,0 0,-25.5814 8.468649,0 c 2.881454,0 5.098149,0.6558 6.650163,1.9677 1.55201,1.312 2.32798,3.2212 2.32798,5.7278 0,1.5931 -0.43044,2.981 -1.29137,4.164 -0.86092,1.1831 -2.05857,2.0673 -3.593018,2.653 l 6.008868,10.8582 0,0.2107 -3.61938,0 -5.552049,-10.3485 z m -6.00887,-2.7585 5.183098,0 c 1.674984,0 3.00735,-0.4334 3.997116,-1.3002 0.98978,-0.8667 1.484655,-2.0262 1.484655,-3.4787 0,-1.5812 -0.471449,-2.7936 -1.414378,-3.6369 -0.942914,-0.8434 -2.304552,-1.2709 -4.084973,-1.2826 l -5.165518,0 0,9.6984 z m 37.513349,1.1421 c 0,2.5066 -0.42166,4.6941 -1.26502,6.5623 -0.84335,1.8682 -2.03809,3.2943 -3.58423,4.2783 -1.54615,0.9838 -3.34997,1.4758 -5.41149,1.4758 -2.0147,0 -3.80093,-0.495 -5.3588,-1.4847 -1.55785,-0.9897 -2.76724,-2.4012 -3.62816,-4.2342 -0.86093,-1.8332 -1.30309,-3.9562 -1.32651,-6.3691 l 0,-1.8449 c 0,-2.4597 0.42751,-4.6325 1.28259,-6.5183 0.85507,-1.8858 2.06443,-3.3295 3.62817,-4.331 1.56371,-1.0014 3.35288,-1.5022 5.36756,-1.5022 2.04982,0 3.85656,0.495 5.42028,1.4847 1.56371,0.9898 2.76724,2.4246 3.61059,4.3046 0.84336,1.8799 1.26502,4.0674 1.26502,6.5622 l 0,1.6165 z m -3.35583,-1.6516 c 0,-3.0337 -0.60908,-5.3618 -1.82726,-6.9838 -1.21817,-1.6224 -2.92243,-2.4336 -5.1128,-2.4336 -2.13183,0 -3.80971,0.8112 -5.03375,2.4336 -1.22403,1.622 -1.85361,3.8741 -1.88875,6.7555 l 0,1.8799 c 0,2.94 0.61787,5.2504 1.85362,6.9311 1.23574,1.681 2.93705,2.5214 5.10403,2.5214 2.17865,0 3.86534,-0.7935 5.06009,-2.3806 1.19475,-1.5872 1.80969,-3.8625 1.84482,-6.8259 l 0,-1.8976 z"
       id="Cro-Copy-2" />
  </g>
</svg>
